<?xml version="1.0" encoding="utf-8"?>
<!-- Generator: Adobe Illustrator 25.0.1, SVG Export Plug-In . SVG Version: 6.00 Build 0)  -->
<svg version="1.1" id="Layer_1" xmlns="http://www.w3.org/2000/svg" xmlns:xlink="http://www.w3.org/1999/xlink" x="0px" y="0px"
	 viewBox="0 0 900 225" style="enable-background:new 0 0 900 225;" xml:space="preserve">
<style type="text/css">
	.st0{opacity:0.2;fill:#00FFFF;enable-background:new    ;}
	.st1{opacity:0.2;fill:#3399FF;enable-background:new    ;}
	.st2{opacity:0.2;fill:#9933CC;enable-background:new    ;}
</style>
<path class="st0" d="M-22.4-208.3c-3.4,60.1,67.3,128,138.1,150.9c124.2,40.3,184.4-78.4,352.5-57C555.9-103.1,562-67.9,664-62.1
	c57.1,3.3,141.2,8.1,208.9-46.3c81.6-65.5,113.1-195.8,67.4-269.4c-25.7-41.4-69.8-57.3-90.5-63C690-485.1,577.5-746,270-764.6
	C-37.3-783.3-117.6-607.2,24.9-473.1c14.9,14,24.2,26.7,30.7,38c0,0,14.2,23.4,19.8,45.6C90.1-331-18.3-279.7-22.4-208.3z"/>
<path class="st1" d="M1010.6,118.3c57.9-54,44.5-198.6-16.6-281.3c-67.6-91.5-183.2-98.4-189.3-167.1c-3.6-40.2,29.1-83.8,2.9-144
	c0,0-2.9-8.3-8.2-15.9c-20.2-28.9-70.7-48.6-244.7-105.2c-312.8-101.7-349-103-391-86.3C64.4-642.2,79.8-560.9-39.8-518
	c-83.4,29.9-112.6-1.9-211.3,33.2c-13.7,4.9-129.5,33.8-168.4,121.3c-47,105.5,45.3,231.3,62.8,255.2
	C-251.6,34.9-77.9,65.5-14.8,75.6c216,34.7,250.2-63.6,479.5-61.7C772.8,16.5,927.5,195.9,1010.6,118.3z"/>
<path class="st2" d="M40-436.7c119.2-180.9,322.3-196.7,632.9-171.5c41.5-4.9,153.6-3.4,271,42.2c41.9,16.3,71.8,34.5,93.6,54.8
	c62.5,58,64.6,118.1,75.4,191.7c7.3,49.7,15.2,60,24.9,91c4.5,14.4,7.1,25.7,10.1,39.2c36.5,163.1,54.7,244.6,37.7,271.4
	c-42.8,67.5-241.8,13.1-359.3-17.4c-13.9-3.6-46.6-12.5-91.7-16.1c-65.3-5.2-110.7,4.2-145.6,9.5C417.4,84.5,257.2,48.1,162,9.9
	C151.3,5.6,141.8,1,132.4-3.8C78.3-32-161.3-131.3,40-436.7z"/>
</svg>
