<?xml version="1.0" standalone="no"?>
<!DOCTYPE svg PUBLIC "-//W3C//DTD SVG 20010904//EN"
 "http://www.w3.org/TR/2001/REC-SVG-20010904/DTD/svg10.dtd">
<svg version="1.0" xmlns="http://www.w3.org/2000/svg"
 width="64.000000pt" height="64.000000pt" viewBox="0 0 64.000000 64.000000"
 preserveAspectRatio="xMidYMid meet">
<metadata>
Created by potrace 1.11, written by Peter Selinger 2001-2013
</metadata>
<g transform="translate(0.000000,64.000000) scale(0.100000,-0.100000)"
fill="#000000" stroke="none">
<path d="M0 496 l0 -144 145 0 145 -1 0 145 0 144 -145 0 -145 0 0 -144z m223
71 c-2 -4 -3 -39 -3 -77 l0 -71 -77 3 -77 3 -1 70 c-1 52 3 71 13 76 21 8 147
5 145 -4z"/>
<path d="M350 400 l0 -50 50 0 50 0 0 50 0 50 -50 0 -50 0 0 -50z"/>
<path d="M195 291 c-3 -2 -5 -26 -5 -51 l0 -48 50 1 50 2 0 47 c0 39 -3 48
-17 49 -10 0 -31 2 -46 3 -15 1 -30 0 -32 -3z"/>
<path d="M373 292 c-23 -3 -23 -6 -23 -145 l0 -142 145 0 145 0 0 145 0 145
-123 0 c-67 0 -132 -1 -144 -3z m202 -142 l0 -75 -77 -3 c-88 -3 -85 -7 -80
94 l4 64 76 -3 77 -2 0 -75z"/>
</g>
</svg>
